<?xml version="1.0" encoding="utf-8"?>
<!-- Generator: Adobe Illustrator 22.0.1, SVG Export Plug-In . SVG Version: 6.00 Build 0)  -->
<svg version="1.1" id="Layer_1" xmlns="http://www.w3.org/2000/svg" xmlns:xlink="http://www.w3.org/1999/xlink" x="0px" y="0px"
	 viewBox="0 0 150 170" style="enable-background:new 0 0 150 170;" xml:space="preserve">
<style type="text/css">
	.st0{fill:#00BDFF;}
	.st1{fill:#EF5050;}
	.st2{opacity:0.65;fill:#00BDFF;}
</style>
<g>
	<path class="st0" d="M48.9,120.9L48.9,120.9c-2.4-4.1-1-9.4,3.2-11.8l43.2-25c4.1-2.4,9.4-1,11.8,3.2l0,0c2.4,4.1,1,9.4-3.2,11.8
		l-43.2,25C56.6,126.4,51.3,125,48.9,120.9z"/>
	<path class="st0" d="M43.9,83.1L43.9,83.1c-2.4-4.1-1-9.4,3.2-11.8l43.2-25c4.1-2.4,9.4-1,11.8,3.2l0,0c2.4,4.1,1,9.4-3.2,11.8
		l-43.2,25C51.6,88.7,46.3,87.3,43.9,83.1z"/>
	<path class="st1" d="M43,76.5L43,76.5c1.2-4.6,6-7.3,10.6-6.1l48.2,12.9c4.6,1.2,7.3,6,6.1,10.6v0c-1.2,4.6-6,7.3-10.6,6.1
		L49.1,87.1C44.5,85.9,41.8,81.1,43,76.5z"/>
	<path class="st2" d="M53.6,70.4c-2-0.5-4-0.3-5.8,0.5L47,71.3c-2.7,1.6-4.3,4.4-4.3,7.4c0,3.8,2.5,7.3,6.4,8.4l0.9,0.2
		c1.9,0.3,3.9,0,5.6-1l18.1-10.5L53.6,70.4z"/>
	<path class="st2" d="M108.2,91.7c0-3.8-2.5-7.3-6.4-8.4l-0.9-0.2c-1.9-0.3-3.9,0-5.6,1L77.1,94.6l20.2,5.4c2,0.5,4,0.3,5.8-0.5
		l0.8-0.4C106.6,97.5,108.2,94.7,108.2,91.7z"/>
	<path class="st1" d="M145.5,39l-65-37.5c-3.1-1.8-6.9-1.8-10,0L5.5,39c-3.1,1.8-5,5.1-5,8.6v75.1c0,3.6,1.9,6.9,5,8.6l65,37.5
		c3.1,1.8,6.9,1.8,10,0l65-37.5c3.1-1.8,5-5.1,5-8.6V47.7C150.5,44.1,148.6,40.8,145.5,39z M142.8,118.3c0,3.6-1.9,6.9-5,8.6
		L80.5,160c-3.1,1.8-6.9,1.8-10,0L13.2,127c-3.1-1.8-5-5.1-5-8.6V52.1c0-3.6,1.9-6.9,5-8.6l57.3-33.1c3.1-1.8,6.9-1.8,10,0
		l57.3,33.1c3.1,1.8,5,5.1,5,8.6V118.3z"/>
</g>
</svg>
